<mxfile host="Electron" modified="2023-11-09T12:17:02.185Z" agent="Mozilla/5.0 (Windows NT 10.0; Win64; x64) AppleWebKit/537.36 (KHTML, like Gecko) draw.io/21.6.8 Chrome/114.0.5735.289 Electron/25.5.0 Safari/537.36" etag="VFSqZwq3JC44UyHmzJow" version="21.6.8" type="device">
  <diagram id="C5RBs43oDa-KdzZeNtuy" name="Page-1">
    <mxGraphModel dx="2307" dy="2035" grid="1" gridSize="10" guides="1" tooltips="1" connect="1" arrows="1" fold="1" page="1" pageScale="1" pageWidth="827" pageHeight="1169" math="0" shadow="0">
      <root>
        <mxCell id="WIyWlLk6GJQsqaUBKTNV-0" />
        <mxCell id="WIyWlLk6GJQsqaUBKTNV-1" parent="WIyWlLk6GJQsqaUBKTNV-0" />
        <mxCell id="QLMu3U4UnFs5ReBlrLUt-1" value="" style="swimlane;startSize=0;dashed=1;" vertex="1" parent="WIyWlLk6GJQsqaUBKTNV-1">
          <mxGeometry x="-810" y="-60" width="1250" height="720" as="geometry" />
        </mxCell>
        <mxCell id="QLMu3U4UnFs5ReBlrLUt-68" style="edgeStyle=orthogonalEdgeStyle;rounded=0;orthogonalLoop=1;jettySize=auto;html=1;entryX=0.102;entryY=0.494;entryDx=0;entryDy=0;entryPerimeter=0;fontFamily=Helvetica;fontSize=12;fontColor=#ffffff;" edge="1" parent="QLMu3U4UnFs5ReBlrLUt-1" source="QLMu3U4UnFs5ReBlrLUt-2" target="QLMu3U4UnFs5ReBlrLUt-58">
          <mxGeometry relative="1" as="geometry" />
        </mxCell>
        <mxCell id="QLMu3U4UnFs5ReBlrLUt-2" value="Chat" style="rounded=1;whiteSpace=wrap;html=1;fillColor=#dae8fc;strokeColor=#6c8ebf;" vertex="1" parent="QLMu3U4UnFs5ReBlrLUt-1">
          <mxGeometry x="840" y="203.74" width="120" height="60" as="geometry" />
        </mxCell>
        <mxCell id="QLMu3U4UnFs5ReBlrLUt-70" value="" style="edgeStyle=orthogonalEdgeStyle;rounded=0;orthogonalLoop=1;jettySize=auto;html=1;fontFamily=Helvetica;fontSize=12;fontColor=#ffffff;" edge="1" parent="QLMu3U4UnFs5ReBlrLUt-1" source="QLMu3U4UnFs5ReBlrLUt-3" target="QLMu3U4UnFs5ReBlrLUt-59">
          <mxGeometry relative="1" as="geometry" />
        </mxCell>
        <mxCell id="QLMu3U4UnFs5ReBlrLUt-3" value="Code Execution" style="rounded=1;whiteSpace=wrap;html=1;fillColor=#dae8fc;strokeColor=#6c8ebf;" vertex="1" parent="QLMu3U4UnFs5ReBlrLUt-1">
          <mxGeometry x="840" y="286.24" width="120" height="60" as="geometry" />
        </mxCell>
        <mxCell id="QLMu3U4UnFs5ReBlrLUt-71" value="" style="edgeStyle=orthogonalEdgeStyle;rounded=0;orthogonalLoop=1;jettySize=auto;html=1;fontFamily=Helvetica;fontSize=12;fontColor=#ffffff;" edge="1" parent="QLMu3U4UnFs5ReBlrLUt-1" source="QLMu3U4UnFs5ReBlrLUt-4" target="QLMu3U4UnFs5ReBlrLUt-60">
          <mxGeometry relative="1" as="geometry" />
        </mxCell>
        <mxCell id="QLMu3U4UnFs5ReBlrLUt-4" value="History" style="rounded=1;whiteSpace=wrap;html=1;fillColor=#dae8fc;strokeColor=#6c8ebf;" vertex="1" parent="QLMu3U4UnFs5ReBlrLUt-1">
          <mxGeometry x="840" y="363.74" width="120" height="60" as="geometry" />
        </mxCell>
        <mxCell id="QLMu3U4UnFs5ReBlrLUt-72" value="" style="edgeStyle=orthogonalEdgeStyle;rounded=0;orthogonalLoop=1;jettySize=auto;html=1;fontFamily=Helvetica;fontSize=12;fontColor=#ffffff;" edge="1" parent="QLMu3U4UnFs5ReBlrLUt-1" source="QLMu3U4UnFs5ReBlrLUt-8" target="QLMu3U4UnFs5ReBlrLUt-61">
          <mxGeometry relative="1" as="geometry" />
        </mxCell>
        <mxCell id="QLMu3U4UnFs5ReBlrLUt-8" value="User" style="rounded=1;whiteSpace=wrap;html=1;fillColor=#dae8fc;strokeColor=#6c8ebf;" vertex="1" parent="QLMu3U4UnFs5ReBlrLUt-1">
          <mxGeometry x="840" y="443.74" width="120" height="60" as="geometry" />
        </mxCell>
        <mxCell id="QLMu3U4UnFs5ReBlrLUt-55" style="edgeStyle=orthogonalEdgeStyle;rounded=0;orthogonalLoop=1;jettySize=auto;html=1;fontFamily=Helvetica;fontSize=12;fontColor=#ffffff;" edge="1" parent="QLMu3U4UnFs5ReBlrLUt-1" source="QLMu3U4UnFs5ReBlrLUt-7" target="QLMu3U4UnFs5ReBlrLUt-54">
          <mxGeometry relative="1" as="geometry" />
        </mxCell>
        <mxCell id="QLMu3U4UnFs5ReBlrLUt-7" value="Session" style="rounded=1;whiteSpace=wrap;html=1;fillColor=#dae8fc;strokeColor=#6c8ebf;" vertex="1" parent="QLMu3U4UnFs5ReBlrLUt-1">
          <mxGeometry x="840" y="62.49" width="120" height="60" as="geometry" />
        </mxCell>
        <mxCell id="QLMu3U4UnFs5ReBlrLUt-73" value="" style="edgeStyle=orthogonalEdgeStyle;rounded=0;orthogonalLoop=1;jettySize=auto;html=1;fontFamily=Helvetica;fontSize=12;fontColor=#ffffff;" edge="1" parent="QLMu3U4UnFs5ReBlrLUt-1" source="QLMu3U4UnFs5ReBlrLUt-5" target="QLMu3U4UnFs5ReBlrLUt-62">
          <mxGeometry relative="1" as="geometry" />
        </mxCell>
        <mxCell id="QLMu3U4UnFs5ReBlrLUt-5" value="Question" style="rounded=1;whiteSpace=wrap;html=1;fillColor=#dae8fc;strokeColor=#6c8ebf;" vertex="1" parent="QLMu3U4UnFs5ReBlrLUt-1">
          <mxGeometry x="840" y="518.74" width="120" height="60" as="geometry" />
        </mxCell>
        <mxCell id="QLMu3U4UnFs5ReBlrLUt-14" value="" style="endArrow=classic;html=1;rounded=0;exitX=1;exitY=0.5;exitDx=0;exitDy=0;entryX=0;entryY=0.5;entryDx=0;entryDy=0;" edge="1" parent="QLMu3U4UnFs5ReBlrLUt-1" target="QLMu3U4UnFs5ReBlrLUt-15">
          <mxGeometry width="50" height="50" relative="1" as="geometry">
            <mxPoint x="140" y="330.62" as="sourcePoint" />
            <mxPoint x="190" y="330.62" as="targetPoint" />
          </mxGeometry>
        </mxCell>
        <mxCell id="QLMu3U4UnFs5ReBlrLUt-20" value="" style="group" vertex="1" connectable="0" parent="QLMu3U4UnFs5ReBlrLUt-1">
          <mxGeometry x="200" y="300.62" width="50" height="40" as="geometry" />
        </mxCell>
        <mxCell id="QLMu3U4UnFs5ReBlrLUt-15" value="" style="ellipse;whiteSpace=wrap;html=1;aspect=fixed;" vertex="1" parent="QLMu3U4UnFs5ReBlrLUt-20">
          <mxGeometry x="15" y="20" width="20" height="20" as="geometry" />
        </mxCell>
        <mxCell id="QLMu3U4UnFs5ReBlrLUt-16" value="Rest API" style="text;strokeColor=none;align=center;fillColor=none;html=1;verticalAlign=middle;whiteSpace=wrap;rounded=0;" vertex="1" parent="QLMu3U4UnFs5ReBlrLUt-20">
          <mxGeometry width="50" height="20" as="geometry" />
        </mxCell>
        <mxCell id="QLMu3U4UnFs5ReBlrLUt-28" value="" style="shape=cylinder3;whiteSpace=wrap;html=1;boundedLbl=1;backgroundOutline=1;size=15;rounded=1;fontFamily=Helvetica;fontSize=12;fillColor=#ffe6cc;strokeColor=#d79b00;" vertex="1" parent="QLMu3U4UnFs5ReBlrLUt-1">
          <mxGeometry x="292" y="263.12" width="60" height="135" as="geometry" />
        </mxCell>
        <mxCell id="QLMu3U4UnFs5ReBlrLUt-29" value="" style="shape=image;imageAspect=0;aspect=fixed;verticalLabelPosition=bottom;verticalAlign=top;rounded=1;strokeColor=#2D7600;fontFamily=Helvetica;fontSize=12;fontColor=#ffffff;fillColor=#60a917;html=1;image=https://cdn-icons-png.flaticon.com/512/5880/5880629.png;" vertex="1" parent="QLMu3U4UnFs5ReBlrLUt-1">
          <mxGeometry x="304" y="302.62" width="36" height="36" as="geometry" />
        </mxCell>
        <mxCell id="QLMu3U4UnFs5ReBlrLUt-35" value="Load Balancer" style="text;strokeColor=none;align=center;fillColor=none;html=1;verticalAlign=middle;whiteSpace=wrap;rounded=0;fontSize=12;fontFamily=Helvetica;fontColor=#141414;" vertex="1" parent="QLMu3U4UnFs5ReBlrLUt-1">
          <mxGeometry x="287" y="345" width="70" height="30" as="geometry" />
        </mxCell>
        <mxCell id="QLMu3U4UnFs5ReBlrLUt-37" value="" style="endArrow=classic;html=1;rounded=0;fontFamily=Helvetica;fontSize=12;fontColor=#ffffff;exitX=1;exitY=0.5;exitDx=0;exitDy=0;entryX=0;entryY=0.5;entryDx=0;entryDy=0;entryPerimeter=0;" edge="1" parent="QLMu3U4UnFs5ReBlrLUt-1" source="QLMu3U4UnFs5ReBlrLUt-15" target="QLMu3U4UnFs5ReBlrLUt-28">
          <mxGeometry width="50" height="50" relative="1" as="geometry">
            <mxPoint x="400" y="355.62" as="sourcePoint" />
            <mxPoint x="450" y="305.62" as="targetPoint" />
          </mxGeometry>
        </mxCell>
        <mxCell id="QLMu3U4UnFs5ReBlrLUt-18" value="" style="group;fillColor=#d5e8d4;strokeColor=#82b366;" vertex="1" connectable="0" parent="QLMu3U4UnFs5ReBlrLUt-1">
          <mxGeometry x="20" y="300.62" width="130" height="60" as="geometry" />
        </mxCell>
        <mxCell id="QLMu3U4UnFs5ReBlrLUt-17" value="Frontend" style="rounded=1;whiteSpace=wrap;html=1;fillColor=#e1d5e7;strokeColor=#9673a6;" vertex="1" parent="QLMu3U4UnFs5ReBlrLUt-18">
          <mxGeometry width="130" height="60" as="geometry" />
        </mxCell>
        <mxCell id="QLMu3U4UnFs5ReBlrLUt-10" value="" style="shape=image;imageAspect=0;aspect=fixed;verticalLabelPosition=bottom;verticalAlign=top;image=https://styles.redditmedia.com/t5_2su6s/styles/communityIcon_4g1uo0kd87c61.png;" vertex="1" parent="QLMu3U4UnFs5ReBlrLUt-18">
          <mxGeometry x="4" y="14.5" width="31" height="31" as="geometry" />
        </mxCell>
        <mxCell id="QLMu3U4UnFs5ReBlrLUt-38" value="" style="endArrow=classic;html=1;rounded=0;fontFamily=Helvetica;fontSize=12;fontColor=#ffffff;exitX=1;exitY=0.5;exitDx=0;exitDy=0;exitPerimeter=0;entryX=0;entryY=0.5;entryDx=0;entryDy=0;" edge="1" parent="QLMu3U4UnFs5ReBlrLUt-1" source="QLMu3U4UnFs5ReBlrLUt-28" target="QLMu3U4UnFs5ReBlrLUt-23">
          <mxGeometry width="50" height="50" relative="1" as="geometry">
            <mxPoint x="460" y="365.62" as="sourcePoint" />
            <mxPoint x="510" y="315.62" as="targetPoint" />
          </mxGeometry>
        </mxCell>
        <mxCell id="QLMu3U4UnFs5ReBlrLUt-27" value="" style="group" vertex="1" connectable="0" parent="QLMu3U4UnFs5ReBlrLUt-1">
          <mxGeometry x="410" y="140" width="120" height="381.25" as="geometry" />
        </mxCell>
        <mxCell id="QLMu3U4UnFs5ReBlrLUt-23" value="Gateway&lt;br&gt;API" style="rounded=1;whiteSpace=wrap;html=1;fillColor=#60a917;strokeColor=#2D7600;fontColor=#ffffff;" vertex="1" parent="QLMu3U4UnFs5ReBlrLUt-27">
          <mxGeometry width="120" height="381.25" as="geometry" />
        </mxCell>
        <mxCell id="QLMu3U4UnFs5ReBlrLUt-25" value="" style="shape=image;imageAspect=0;aspect=fixed;verticalLabelPosition=bottom;verticalAlign=top;image=https://techannotation.files.wordpress.com/2019/12/nginx-logo.png;" vertex="1" parent="QLMu3U4UnFs5ReBlrLUt-27">
          <mxGeometry x="40" y="131.25" width="40" height="40" as="geometry" />
        </mxCell>
        <mxCell id="QLMu3U4UnFs5ReBlrLUt-44" style="edgeStyle=orthogonalEdgeStyle;rounded=0;orthogonalLoop=1;jettySize=auto;html=1;entryX=0;entryY=0.5;entryDx=0;entryDy=0;fontFamily=Helvetica;fontSize=12;fontColor=#ffffff;" edge="1" parent="QLMu3U4UnFs5ReBlrLUt-1" source="QLMu3U4UnFs5ReBlrLUt-23" target="QLMu3U4UnFs5ReBlrLUt-7">
          <mxGeometry relative="1" as="geometry" />
        </mxCell>
        <mxCell id="QLMu3U4UnFs5ReBlrLUt-45" style="edgeStyle=orthogonalEdgeStyle;rounded=0;orthogonalLoop=1;jettySize=auto;html=1;entryX=0;entryY=0.5;entryDx=0;entryDy=0;fontFamily=Helvetica;fontSize=12;fontColor=#ffffff;" edge="1" parent="QLMu3U4UnFs5ReBlrLUt-1" source="QLMu3U4UnFs5ReBlrLUt-23" target="QLMu3U4UnFs5ReBlrLUt-6">
          <mxGeometry relative="1" as="geometry" />
        </mxCell>
        <mxCell id="QLMu3U4UnFs5ReBlrLUt-46" style="edgeStyle=orthogonalEdgeStyle;rounded=0;orthogonalLoop=1;jettySize=auto;html=1;entryX=0;entryY=0.5;entryDx=0;entryDy=0;fontFamily=Helvetica;fontSize=12;fontColor=#ffffff;" edge="1" parent="QLMu3U4UnFs5ReBlrLUt-1" source="QLMu3U4UnFs5ReBlrLUt-23" target="QLMu3U4UnFs5ReBlrLUt-2">
          <mxGeometry relative="1" as="geometry" />
        </mxCell>
        <mxCell id="QLMu3U4UnFs5ReBlrLUt-48" style="edgeStyle=orthogonalEdgeStyle;rounded=0;orthogonalLoop=1;jettySize=auto;html=1;fontFamily=Helvetica;fontSize=12;fontColor=#ffffff;" edge="1" parent="QLMu3U4UnFs5ReBlrLUt-1" source="QLMu3U4UnFs5ReBlrLUt-23" target="QLMu3U4UnFs5ReBlrLUt-3">
          <mxGeometry relative="1" as="geometry" />
        </mxCell>
        <mxCell id="QLMu3U4UnFs5ReBlrLUt-49" style="edgeStyle=orthogonalEdgeStyle;rounded=0;orthogonalLoop=1;jettySize=auto;html=1;fontFamily=Helvetica;fontSize=12;fontColor=#ffffff;" edge="1" parent="QLMu3U4UnFs5ReBlrLUt-1" source="QLMu3U4UnFs5ReBlrLUt-23" target="QLMu3U4UnFs5ReBlrLUt-4">
          <mxGeometry relative="1" as="geometry" />
        </mxCell>
        <mxCell id="QLMu3U4UnFs5ReBlrLUt-50" style="edgeStyle=orthogonalEdgeStyle;rounded=0;orthogonalLoop=1;jettySize=auto;html=1;entryX=0;entryY=0.5;entryDx=0;entryDy=0;fontFamily=Helvetica;fontSize=12;fontColor=#ffffff;" edge="1" parent="QLMu3U4UnFs5ReBlrLUt-1" source="QLMu3U4UnFs5ReBlrLUt-23" target="QLMu3U4UnFs5ReBlrLUt-8">
          <mxGeometry relative="1" as="geometry" />
        </mxCell>
        <mxCell id="QLMu3U4UnFs5ReBlrLUt-51" style="edgeStyle=orthogonalEdgeStyle;rounded=0;orthogonalLoop=1;jettySize=auto;html=1;fontFamily=Helvetica;fontSize=12;fontColor=#ffffff;" edge="1" parent="QLMu3U4UnFs5ReBlrLUt-1" source="QLMu3U4UnFs5ReBlrLUt-23" target="QLMu3U4UnFs5ReBlrLUt-5">
          <mxGeometry relative="1" as="geometry" />
        </mxCell>
        <mxCell id="QLMu3U4UnFs5ReBlrLUt-52" value="" style="swimlane;startSize=0;rounded=1;fontFamily=Helvetica;fontSize=12;html=1;strokeColor=default;dashed=1;dashPattern=1 2;" vertex="1" parent="QLMu3U4UnFs5ReBlrLUt-1">
          <mxGeometry x="550" y="25.619999999999997" width="660" height="590" as="geometry" />
        </mxCell>
        <mxCell id="QLMu3U4UnFs5ReBlrLUt-53" value="" style="shape=image;imageAspect=0;aspect=fixed;verticalLabelPosition=bottom;verticalAlign=top;rounded=1;strokeColor=#2D7600;fontFamily=Helvetica;fontSize=12;fontColor=#ffffff;fillColor=#60a917;html=1;image=https://miro.medium.com/v2/resize:fit:600/1*Xyrmr3lIfdwwH638Iv0LzQ.png;" vertex="1" parent="QLMu3U4UnFs5ReBlrLUt-52">
          <mxGeometry x="550" y="4.380000000000003" width="100" height="50" as="geometry" />
        </mxCell>
        <mxCell id="QLMu3U4UnFs5ReBlrLUt-54" value="" style="sketch=0;html=1;dashed=0;whitespace=wrap;fillColor=#2875E2;strokeColor=#ffffff;points=[[0.005,0.63,0],[0.1,0.2,0],[0.9,0.2,0],[0.5,0,0],[0.995,0.63,0],[0.72,0.99,0],[0.5,1,0],[0.28,0.99,0]];verticalLabelPosition=bottom;align=center;verticalAlign=top;shape=mxgraph.kubernetes.icon;prIcon=pod;rounded=1;fontFamily=Helvetica;fontSize=12;fontColor=#ffffff;" vertex="1" parent="QLMu3U4UnFs5ReBlrLUt-52">
          <mxGeometry x="450" y="53.44" width="30" height="26.87" as="geometry" />
        </mxCell>
        <mxCell id="QLMu3U4UnFs5ReBlrLUt-57" value="" style="sketch=0;html=1;dashed=0;whitespace=wrap;fillColor=#2875E2;strokeColor=#ffffff;points=[[0.005,0.63,0],[0.1,0.2,0],[0.9,0.2,0],[0.5,0,0],[0.995,0.63,0],[0.72,0.99,0],[0.5,1,0],[0.28,0.99,0]];verticalLabelPosition=bottom;align=center;verticalAlign=top;shape=mxgraph.kubernetes.icon;prIcon=pod;rounded=1;fontFamily=Helvetica;fontSize=12;fontColor=#ffffff;" vertex="1" parent="QLMu3U4UnFs5ReBlrLUt-52">
          <mxGeometry x="450" y="123.44" width="30" height="26.87" as="geometry" />
        </mxCell>
        <mxCell id="QLMu3U4UnFs5ReBlrLUt-58" value="" style="sketch=0;html=1;dashed=0;whitespace=wrap;fillColor=#2875E2;strokeColor=#ffffff;points=[[0.005,0.63,0],[0.1,0.2,0],[0.9,0.2,0],[0.5,0,0],[0.995,0.63,0],[0.72,0.99,0],[0.5,1,0],[0.28,0.99,0]];verticalLabelPosition=bottom;align=center;verticalAlign=top;shape=mxgraph.kubernetes.icon;prIcon=pod;rounded=1;fontFamily=Helvetica;fontSize=12;fontColor=#ffffff;" vertex="1" parent="QLMu3U4UnFs5ReBlrLUt-52">
          <mxGeometry x="450" y="194.69" width="30" height="26.87" as="geometry" />
        </mxCell>
        <mxCell id="QLMu3U4UnFs5ReBlrLUt-59" value="" style="sketch=0;html=1;dashed=0;whitespace=wrap;fillColor=#2875E2;strokeColor=#ffffff;points=[[0.005,0.63,0],[0.1,0.2,0],[0.9,0.2,0],[0.5,0,0],[0.995,0.63,0],[0.72,0.99,0],[0.5,1,0],[0.28,0.99,0]];verticalLabelPosition=bottom;align=center;verticalAlign=top;shape=mxgraph.kubernetes.icon;prIcon=pod;rounded=1;fontFamily=Helvetica;fontSize=12;fontColor=#ffffff;" vertex="1" parent="QLMu3U4UnFs5ReBlrLUt-52">
          <mxGeometry x="450" y="277.19" width="30" height="26.87" as="geometry" />
        </mxCell>
        <mxCell id="QLMu3U4UnFs5ReBlrLUt-60" value="" style="sketch=0;html=1;dashed=0;whitespace=wrap;fillColor=#2875E2;strokeColor=#ffffff;points=[[0.005,0.63,0],[0.1,0.2,0],[0.9,0.2,0],[0.5,0,0],[0.995,0.63,0],[0.72,0.99,0],[0.5,1,0],[0.28,0.99,0]];verticalLabelPosition=bottom;align=center;verticalAlign=top;shape=mxgraph.kubernetes.icon;prIcon=pod;rounded=1;fontFamily=Helvetica;fontSize=12;fontColor=#ffffff;" vertex="1" parent="QLMu3U4UnFs5ReBlrLUt-52">
          <mxGeometry x="450" y="354.38" width="30" height="26.87" as="geometry" />
        </mxCell>
        <mxCell id="QLMu3U4UnFs5ReBlrLUt-61" value="" style="sketch=0;html=1;dashed=0;whitespace=wrap;fillColor=#2875E2;strokeColor=#ffffff;points=[[0.005,0.63,0],[0.1,0.2,0],[0.9,0.2,0],[0.5,0,0],[0.995,0.63,0],[0.72,0.99,0],[0.5,1,0],[0.28,0.99,0]];verticalLabelPosition=bottom;align=center;verticalAlign=top;shape=mxgraph.kubernetes.icon;prIcon=pod;rounded=1;fontFamily=Helvetica;fontSize=12;fontColor=#ffffff;" vertex="1" parent="QLMu3U4UnFs5ReBlrLUt-52">
          <mxGeometry x="450" y="434.38" width="30" height="26.87" as="geometry" />
        </mxCell>
        <mxCell id="QLMu3U4UnFs5ReBlrLUt-62" value="" style="sketch=0;html=1;dashed=0;whitespace=wrap;fillColor=#2875E2;strokeColor=#ffffff;points=[[0.005,0.63,0],[0.1,0.2,0],[0.9,0.2,0],[0.5,0,0],[0.995,0.63,0],[0.72,0.99,0],[0.5,1,0],[0.28,0.99,0]];verticalLabelPosition=bottom;align=center;verticalAlign=top;shape=mxgraph.kubernetes.icon;prIcon=pod;rounded=1;fontFamily=Helvetica;fontSize=12;fontColor=#ffffff;" vertex="1" parent="QLMu3U4UnFs5ReBlrLUt-52">
          <mxGeometry x="450" y="509.69" width="30" height="26.87" as="geometry" />
        </mxCell>
        <mxCell id="QLMu3U4UnFs5ReBlrLUt-64" style="edgeStyle=orthogonalEdgeStyle;rounded=0;orthogonalLoop=1;jettySize=auto;html=1;entryX=0.033;entryY=0.485;entryDx=0;entryDy=0;entryPerimeter=0;fontFamily=Helvetica;fontSize=12;fontColor=#ffffff;" edge="1" parent="QLMu3U4UnFs5ReBlrLUt-52" source="QLMu3U4UnFs5ReBlrLUt-6" target="QLMu3U4UnFs5ReBlrLUt-57">
          <mxGeometry relative="1" as="geometry" />
        </mxCell>
        <mxCell id="QLMu3U4UnFs5ReBlrLUt-6" value="Queue" style="rounded=1;whiteSpace=wrap;html=1;fillColor=#dae8fc;strokeColor=#6c8ebf;" vertex="1" parent="QLMu3U4UnFs5ReBlrLUt-52">
          <mxGeometry x="290" y="106.87" width="120" height="60" as="geometry" />
        </mxCell>
        <mxCell id="QLMu3U4UnFs5ReBlrLUt-74" value="&lt;font color=&quot;#0f0f0f&quot; style=&quot;font-size: 18px;&quot;&gt;Backend Microservices&lt;/font&gt;" style="text;strokeColor=none;align=center;fillColor=none;html=1;verticalAlign=middle;whiteSpace=wrap;rounded=0;fontSize=18;fontFamily=Helvetica;fontColor=#ffffff;" vertex="1" parent="QLMu3U4UnFs5ReBlrLUt-52">
          <mxGeometry x="40" y="14.379999999999995" width="60" height="30" as="geometry" />
        </mxCell>
      </root>
    </mxGraphModel>
  </diagram>
</mxfile>
